<?xml version="1.0" encoding="UTF-8"?><svg id="uuid-0f08da61-833a-40c1-bd94-a10e069cc448" xmlns="http://www.w3.org/2000/svg" viewBox="0 0 16 16"><path d="M5.81,6.69l.77-.07c.12-.01.17-.1.16-.19,0-.09-.08-.17-.19-.16l-.17.02.08-.37.77-.07.15.35-.17.02c-.12.01-.17.11-.16.2,0,.09.07.17.19.16l.76-.07c.12-.01.17-.1.16-.19,0-.09-.08-.17-.19-.16l-.22.02-.91-2.12c-.07-.16-.14-.24-.2-.23-.06,0-.12.1-.16.27l-.49,2.25-.22.02c-.12.01-.17.11-.16.19,0,.09.07.17.19.16ZM6.72,4.66l.35.83-.55.05.19-.89Z"/><path d="M5.16,10.72c.17-.12.29-.29.29-.54,0-.62-.48-.73-1.1-.73h-.9c-.12,0-.17.09-.17.18s.06.17.17.17h.38v2.06h-.38c-.12,0-.17.09-.17.18s.06.18.17.18h.93c.73,0,1.24-.16,1.24-.83,0-.32-.16-.55-.45-.68ZM4.18,9.82h.17c.53,0,.75.06.75.37,0,.33-.42.42-.58.42h-.33v-.79ZM4.37,11.88h-.19v-.92h.33c.32,0,.74.05.74.45s-.31.48-.88.48Z"/><path d="M11.59,9.93c-.07.05-.1.15-.03.25.13.16.12.56-.12.74-.38.29-.93-.02-1.22-.39-.32-.42-.42-1-.07-1.28.21-.16.48-.12.69.04l.11.17c.07.09.17.08.24.03.06-.05.1-.14.04-.23l-.46-.74c-.07-.08-.17-.08-.24-.03-.06.05-.1.13-.05.23l.03.06c-.2-.02-.42.03-.6.17-.49.38-.44,1.2,0,1.77.4.52,1.2.86,1.72.45.4-.31.39-.96.18-1.24-.07-.09-.18-.09-.25-.03Z"/><path d="M14.12,9.39l-1.77-2.29c-.25-.32-.6-.52-1-.57-.4-.05-.79.06-1.11.3l-.6.47c.14-.26.21-.56.18-.86l-.27-2.88c-.04-.4-.23-.76-.54-1.01-.31-.26-.7-.38-1.1-.34l-2.88.27c-.4.04-.76.23-1.01.54s-.38.7-.34,1.1l.27,2.88c.03.36.19.68.45.92h-1.33c-.83,0-1.5.67-1.5,1.5v2.9c0,.83.67,1.5,1.5,1.5h2.9c.83,0,1.5-.67,1.5-1.5v-2.01c.05.14.12.28.22.41l1.77,2.29h0c.29.38.74.58,1.19.58.32,0,.64-.1.92-.31l2.29-1.77c.65-.51.77-1.45.27-2.1ZM4.59,3.49c.13-.15.31-.25.51-.27l2.88-.27s.05,0,.07,0c.17,0,.34.06.48.17.15.13.25.31.27.51l.27,2.88c.02.2-.04.39-.17.55-.13.15-.31.25-.51.27l-2.88.27c-.21.01-.39-.04-.55-.17-.15-.13-.25-.31-.27-.51l-.27-2.88c-.02-.2.04-.39.17-.55ZM6.71,12.31c0,.41-.34.75-.75.75h-2.9c-.41,0-.75-.34-.75-.75v-2.9c0-.41.34-.75.75-.75h2.9c.41,0,.75.34.75.75v2.9ZM7.45,9.3c-.03-.44-.26-.83-.59-1.08l1.6-.15c.08,0,.16-.03.24-.05l-.75.58c-.24.19-.4.43-.5.7ZM13.39,10.9l-2.29,1.77c-.33.25-.8.19-1.05-.13l-1.77-2.29c-.12-.16-.18-.35-.15-.55s.13-.38.28-.5l2.29-1.77c.16-.12.35-.18.55-.15s.38.13.5.28l1.77,2.29c.25.33.19.8-.13,1.05Z"/></svg>