<svg class="icon icon-cart-empty" data-name="Capa 1" xmlns="http://www.w3.org/2000/svg" viewBox="0 0 32 32">
  <path d="M16.91,31.6v.35c5.26-.3,9.84-3.13,12.53-7.3h-.59s0-.65,0-.65h.65s0,.56,0,.56c.15-.24.3-.47.44-.72-.25-.34-.44-.98-.44-1.14l.84.37c.2-.41.39-.83.56-1.27-.09-.15-.13-.34-.09-.62l.29.08c.22-.63.41-1.27.55-1.94-.23.15-.57.14-.84.12v-.21s.9-.18.9-.18c.19-.99.3-2.01.3-3.05,0-1.36-.19-2.67-.51-3.93-.37.01-.8,0-.91-.44.26.05.6.03.83.14-.06-.22-.12-.45-.19-.67-.12-.07-.21-.26-.21-.56h0c-.27-.75-.58-1.48-.96-2.17h-.14s0-.23,0-.23c-.43-.77-.93-1.5-1.47-2.18-.02.28-.04.49-.05.56-.18,1.12-1.58.24-.22-.65v-.23s-.07-.07-.11-.11c-.38-.09-.53-.32-.56-.62-1.52-1.58-3.35-2.85-5.4-3.7h-.66v-.24c-1.52-.56-3.15-.88-4.85-.95l-.14.11.02-.11c-.17,0-.33-.03-.5-.03-.35,0-.69.03-1.04.05v.08h-.65s0-.03,0-.05c-1.68.18-3.27.62-4.75,1.27,0,.03.03.05.03.08,0,.15-.12.27-.27.27-.09,0-.16-.06-.21-.13-2.29,1.09-4.27,2.71-5.8,4.7l.36-.06-.33.43-.18-.18c-1.99,2.67-3.17,5.96-3.17,9.54,0,6.04,3.35,11.29,8.28,14.01l.28-.37.11.43h-.28c2.26,1.22,4.85,1.92,7.61,1.92.09,0,.19-.01.28-.01.07-.27.33-.44.63-.39ZM29.72,18.36l.54-1.08.54,1.08h-1.08ZM31.24,14.46s-.03-.31,0-.43c.45-.06.49-.02.43.43h-.43s-.11.44-.11.44h-.54c0-.39.55-.36.65-.44ZM30.58,12.94c.11.1-.05.41-.21.54-.77.62-.48-1.16.21-.54ZM30.05,15.33c.62-.17.53.92.3,1.07-.72.46-1.08-.85-.3-1.07ZM3.46,9.03h-.43v-.21h.43v.21ZM8.24,2.53h.43v.21h-.43v-.21ZM7.8,4.91l-.33.43-.32-.32.65-.11ZM7.15,6c.08-.11.57.38.43.65-.08.11-.57-.38-.43-.65ZM7.26,7.52l.11.43h-.43s.33-.43.33-.43ZM7.37,13.53c.15,0,.27.12.27.27s-.12.27-.27.27-.27-.12-.27-.27.12-.27.27-.27ZM4.98,6.43v-.43s.32,0,.32,0l.33.43h-.65ZM7.58,18.36c.16.11.27,1-.32.87-.61-.14-.36-1.35.32-.87ZM7.58,20.31h-.65s0-.65,0-.65c.4-.07.72.24.65.65ZM7.37,26.22c-.15,0-.27-.12-.27-.27s.12-.27.27-.27.27.12.27.27-.12.27-.27.27ZM7.8,23.35v.65c-1.14.48-1.19-.76,0-.65ZM7.59,11.68c-.15,0-.27-.12-.27-.27s.12-.27.27-.27.27.12.27.27-.12.27-.27.27ZM8.46,22.75c-.15,0-.27-.12-.27-.27s.12-.27.27-.27.27.12.27.27-.12.27-.27.27ZM8.02,10.44c-.28-.75.77-.63.86-.54.36.36-.55,1.38-.86.54ZM9.33,3.87c-.15,0-.27-.12-.27-.27s.12-.27.27-.27.27.12.27.27-.12.27-.27.27ZM16.91,19.45v.65c-.8,0-.8-.65,0-.65ZM16.48,30.08c-.13-.14.1-.86.32-.86.65,0,.06,1.28-.32.86ZM17.79,26.22c-.15,0-.27-.12-.27-.27s.12-.27.27-.27.27.12.27.27-.12.27-.27.27ZM18.11,23.79l-.33-.43h.43s-.11.43-.11.43ZM17.78,19.23v-.65s.65.65.65.65h-.65ZM17.78,16.2h.43s-.11.43-.11.43l-.33-.43ZM18.87,25.09v-.32s.33-.33.33-.33l.11.65h-.43ZM19.09,27.48h.43v.21h-.43v-.21ZM19.74,29.16c.15,0,.27.12.27.27s-.12.27-.27.27-.27-.12-.27-.27.12-.27.27-.27ZM19.84,31.38c-.22,0-.46-.72-.32-.86.38-.41.97.87.32.86ZM20.17,23.46c-.15.67-1.18.07-.87-.32.14-.18.99-.25.87.32ZM20.17,10.77v.65s-.65,0-.65,0v-.65s.65,0,.65,0ZM19.47,3.39c0-.15.12-.27.27-.27s.27.12.27.27-.12.27-.27.27-.27-.12-.27-.27ZM19.96,16.24c-.15,0-.27-.12-.27-.27s.12-.27.27-.27.27.12.27.27-.12.27-.27.27ZM20.41,12.33l.17-.52.66.22-.17.52-.66-.22ZM21.25,24.65h-.65c0-.8.65-.8.65,0ZM20.82,29.64l.33-.43h.32s0,.43,0,.43h-.65ZM21.26,27.52c-.15,0-.27-.12-.27-.27s.12-.27.27-.27.27.12.27.27-.12.27-.27.27ZM22.12,21.62l.21.54-.32.32h-.32s0-.86,0-.86h.43ZM21.74,20.85c0-.15.12-.28.28-.28s.28.12.28.28-.12.28-.28.28-.28-.12-.28-.28ZM22.01,23.78c-.14,0-.45-.52-.32-.65.33-.33.92.65.32.65ZM22.01,28.5c-.15,0-.28-.12-.28-.28s.12-.28.28-.28.28.12.28.28-.12.28-.28.28ZM22.34,25.96h-.21v-.43h.21v.43ZM22.77,27.26l.33-.43h.32s0,.43,0,.43h-.65ZM24.73,27.26v-.65s.65,0,.65,0v.65s-.65,0-.65,0ZM24.95,25.74v-.21h.43v.21h-.43ZM26.68,24.65c-.13-.14.1-.86.32-.86.65,0,.06,1.28-.32.86ZM26.68,19.45h.32s.33.43.33.43h-.65s0-.43,0-.43ZM26.68,16.41v-.21h.43v.21h-.43ZM27.33,21.62v.32s-.43.33-.43.33v-.65s.43,0,.43,0ZM26.9,25.96c0-.8.65-.8.65,0h-.65ZM27.64,23.59c-.25-.51-.51-.51-.74-.88l.65.1.11-.98.75-.21c0,1.03-.9,1.79.21,2.49l-.86.33c.02-.29,0-.59-.13-.85ZM28.31,19.02c-1.19.87-.98-1.06.1-1.09l-.1,1.09ZM28.3,20.96c-.77.2-.97-.74-.43-.86.38-.08,1.04.71.43.86ZM28.2,25.52v-.43s.43.43.43.43h-.43ZM29.28,21.4h-.21v-.43h.21v.43ZM29.28,19.66h-.65v-.43h.65v.43ZM29.5,17.06h-.65v-.43h.65v.43ZM29.5,14.24v.87s-.98-.02-.98-.02c-.7.47.84,1.4-.54,1.53-.06-.67-.64-1.52-.33-2.16.4-.85,1.1.18,1.85-.22ZM27.77,7.95h.32s.54.54.54.54l-.32.32c-.51-.02-.61-.43-.54-.87ZM28.09,10.56l.37,1.26.6.14-.86.68.1,1.16c-.77-.32-.85-.71-.76-1.51l-.72.23c-.66-.7-.1-1.12.72-.66l.54-1.3ZM26.61,9.95c0-.25.2-.46.46-.46s.46.2.46.46-.2.46-.46.46-.46-.2-.46-.46ZM27.55,7.3l-.52.42-.56-.53v-.32s1.08.44,1.08.44ZM26.79,14.46l.11.43h-.43s.33-.43.33-.43ZM26.03,5.29c.15,0,.27.12.27.27s-.12.27-.27.27-.27-.12-.27-.27.12-.27.27-.27ZM25.84,25.12l.62-.03v.65s-.87,0-.87,0l.25-.62ZM25.16,9.47h.43v.21h-.43v-.21ZM24.95,11.86h.43v.21h-.43v-.21ZM24.92,23.96l.66.22-.17.52-.66-.22.17-.52ZM24.72,25.63c-1.04.98-1.31-.4,0-.32v.32ZM24.08,22.27v-.43h.21v.43h-.21ZM23.75,17.93h.32s.22.86.22.86h-.32s-.54-.54-.54-.54l.32-.32ZM23.42,20.1c-.27.29-1.34-.88,0-.65v.65ZM22.78,14.89v-.21h.43v.21h-.43ZM23.1,4.26l.11.43h-.43s.33-.43.33-.43ZM22.88,6.86l.11.43h-.43s.33-.43.33-.43ZM22.34,15.76l.22.65c-.35.27-1.17-.82-.22-.65ZM22.01,12.94l.33.43-.65-.11.32-.32ZM22.12,18.8h-.65c0-.8.65-.8.65,0ZM21.47,15.54h-.65s0-.65,0-.65h.65s0,.65,0,.65ZM20.82,7.52h.65v.43h-.65v-.43ZM20.93,10.12h.32s0,.43,0,.43h-.65s.33-.43.33-.43ZM19.95,9.25l-.22-.97.43-.11.43.76-.65.32ZM20.38.9c0,.22-.72.46-.86.32-.41-.38.87-.97.86-.32ZM19.57,20.09c0,.15-.12.27-.27.27s-.27-.12-.27-.27.12-.27.27-.27.27.12.27.27ZM18.65,15.54v-.65s.65,0,.65,0v.65s-.65,0-.65,0ZM19.3,12.72h-.43s.33-.43.33-.43l.11.43ZM18.87,4.2c.15,0,.27.12.27.27s-.12.27-.27.27-.27-.12-.27-.27.12-.27.27-.27ZM17.78,12.94v-.32s.33-.33.33-.33l.32.65h-.65ZM18.22,5.56c-.14.3.11,1.63-.54,1.52l-.11-1.52h.65ZM17.57,4.91v-.43h.21v.43h-.21ZM18.43,11.2v.65c-.8,0-.8-.65,0-.65ZM18.43,1.01l-.33.43h-.32s0-.43,0-.43h.65ZM17.57,3.39h.43v.21h-.43v-.21ZM18.43,14.13c0,.22-.72.46-.86.32-.41-.38.87-.97.86-.32ZM17.35,13.15h-.43v-.21h.43v.21ZM16.81,4.26c.14,0,.45.52.32.65-.33.33-.92-.65-.32-.65ZM17.13,7.41c0,.22-.72.46-.86.32-.41-.38.87-.97.86-.32ZM15.61.79h.32s.33.43.33.43h-.65s0-.43,0-.43ZM14.31,1.22h.65v.43h-.65v-.43ZM13.44.79c.4-.07.72.24.65.65h-.65v-.65ZM13.44,23.36h.43v.21h-.43v-.21ZM12.8,6.44c0,.5.03,1.14-.66,1.08v-1.95l1.52.44c.21.77-.69.27-.86.44ZM13.23,3.39c.33-.33.92.65.32.65-.14,0-.45-.52-.32-.65ZM12.69,2.09l.11,2.6h-.65c.07-.92-.33-1.99.54-2.6ZM10.41,29.91c-.15,0-.27-.12-.27-.27s.12-.27.27-.27.27.12.27.27-.12.27-.27.27ZM10.41,4.96c-.15,0-.27-.12-.27-.27s.12-.27.27-.27.27.12.27.27-.12.27-.27.27ZM11.28,5.94c.15,0,.27.12.27.27s-.12.27-.27.27-.27-.12-.27-.27.12-.27.27-.27ZM11.06,21.4v-.65c.8,0,.8.65,0,.65ZM11.27,9.03c.14-.13.86.1.86.32,0,.65-1.28.06-.86-.32ZM12.79,9.9v.65c-.27.29-1.34-.88,0-.65ZM12.57,14.68v.43h-.21v-.43h.21ZM12.79,27.26h-.32s-.33-.33-.33-.33l.65-.11v.43ZM12.79,22.48h-.43v-.21h.43v.21ZM12.79,19.88h-.43v-.21h.43v.21ZM12.58,12.5v-.43s.43.43.43.43h-.43ZM13.66,28.35h-.43s0-.87,0-.87h.43s0,.87,0,.87ZM13.23,26.06c-.23-.64.48-.7.65-.54.29.28-.38,1.29-.65.54ZM14.1,2.74c-.41-.38.87-.97.86-.32,0,.22-.72.46-.86.32ZM14.53,27.47v-.65c.4-.07.72.24.65.65h-.65ZM14.31,13.37h.43s-.11.43-.11.43l-.33-.43ZM14.96,9.68l.22,1.08c-.33.31-1.44-1.16-.22-1.08ZM14.53,4.91v-.65s.65.65.65.65h-.65ZM16.48,8.92c0,.22-.72.46-.86.32-.41-.38.87-.97.86-.32ZM16.26,11.42v.21h-.43v-.21h.43ZM15.94,28.78h-.32s0-.87,0-.87h.65c.05.4.01.64-.33.87Z" style="fill: #000;"/>
</svg>