<?xml version="1.0" encoding="UTF-8"?><svg id="uuid-581a41e3-e8cc-4f55-a8b7-c4ae06fdf79a" xmlns="http://www.w3.org/2000/svg" viewBox="0 0 16 16"><path d="M8,1.67C4.51,1.67,1.67,4.51,1.67,8s2.84,6.33,6.33,6.33,6.33-2.84,6.33-6.33S11.49,1.67,8,1.67ZM8,13.64c-3.11,0-5.64-2.53-5.64-5.64s2.53-5.64,5.64-5.64,5.64,2.53,5.64,5.64-2.53,5.64-5.64,5.64Z"/><path d="M8,3.21c-2.64,0-4.79,2.15-4.79,4.79s2.15,4.79,4.79,4.79,4.79-2.15,4.79-4.79-2.15-4.79-4.79-4.79ZM8,12.1c-2.26,0-4.1-1.84-4.1-4.1s1.84-4.09,4.1-4.09,4.1,1.84,4.1,4.09-1.84,4.1-4.1,4.1Z"/></svg>