<?xml version="1.0" encoding="UTF-8"?><svg id="uuid-f29e0ae0-e61d-4e67-8a9b-3c4072bf04e9" xmlns="http://www.w3.org/2000/svg" viewBox="0 0 16 16"><path d="M13.69,6.07c.41-.31.68-.84.68-1.45,0-.96-.67-1.73-1.49-1.73s-1.49.78-1.49,1.73c0,.11.01.22.03.32-.06,0-.11-.02-.17-.02s-.11.01-.16.02c.02-.1.03-.21.03-.32,0-.96-.67-1.73-1.49-1.73s-1.49.78-1.49,1.73c0,.11.01.22.03.32-.06,0-.11-.02-.17-.02s-.11.01-.16.02c.02-.1.03-.21.03-.32,0-.96-.67-1.73-1.49-1.73s-1.49.78-1.49,1.73c0,.11.01.22.03.32-.06,0-.11-.02-.17-.02s-.11.01-.16.02c.02-.1.03-.21.03-.32,0-.96-.67-1.73-1.49-1.73s-1.49.78-1.49,1.73c0,.61.27,1.14.68,1.45-1.12.56-1.92,2.22-1.92,4.26,0,.18.15.33.33.33h1.47c-.11.48-.17,1-.17,1.56,0,.18.15.33.33.33h2.63c0,.07-.01.14-.01.22,0,.2.16.36.36.36h5.37c.2,0,.36-.16.36-.36,0-.08-.01-.14-.01-.22h2.63c.18,0,.33-.15.33-.33,0-.55-.07-1.07-.17-1.56h1.47c.18,0,.33-.15.33-.33,0-2.04-.8-3.7-1.92-4.26ZM13.33,11.88h-2.33c-.05-.43-.12-.85-.23-1.23-.03-.11-.07-.22-.11-.33-.05-.15-.1-.31-.16-.45-.08-.2-.18-.38-.28-.56-.05-.08-.09-.15-.14-.23.07-.1.15-.18.23-.26.13-.13.27-.23.41-.3.12-.06.25-.1.38-.12.05,0,.1-.03.16-.03.68,0,1.3.65,1.68,1.62.04.1.08.21.11.33.03.11.07.21.09.33.1.38.16.8.19,1.23ZM10.31,12.39h-4.63c0-.06.01-.12.02-.18,0-.11.02-.22.03-.32.09-.79.31-1.5.61-2.07.06-.12.13-.23.2-.33s.14-.21.21-.3c.36-.43.79-.69,1.24-.69s.88.26,1.24.69c.08.09.14.2.21.3.07.11.14.22.2.33.3.57.51,1.28.61,2.07.01.11.03.21.03.32,0,.06.02.12.02.18ZM11.97,6.12c.05.1.07.21.09.32.01.07.03.14.03.21,0,.06-.02.11-.03.17-.06.45-.32.79-.67.87-.05.01-.09.04-.14.04-.08,0-.14-.03-.21-.06-.1-.04-.2-.09-.28-.18-.2-.2-.34-.5-.34-.85,0-.6.38-1.08.84-1.08.31,0,.57.23.71.55ZM10.33,8c-.24.14-.47.32-.67.55-.23-.24-.48-.42-.75-.55.35-.32.57-.8.57-1.36,0-.11-.01-.22-.03-.32.06,0,.11.02.17.02s.11-.01.16-.02c-.02.1-.03.21-.03.32,0,.55.23,1.03.57,1.35ZM8.84,6.65c0,.6-.38,1.08-.84,1.08s-.84-.48-.84-1.08.38-1.08.84-1.08.84.49.84,1.08ZM7.08,8.01c-.27.13-.52.31-.75.55-.2-.24-.43-.42-.67-.55.34-.32.57-.8.57-1.35,0-.11-.01-.22-.03-.32.06,0,.11.02.17.02s.11-.01.16-.02c-.02.1-.03.21-.03.32,0,.55.23,1.04.57,1.36ZM5.58,6.65c0,.35-.14.65-.34.85-.08.08-.18.14-.28.17-.07.02-.14.06-.21.06-.05,0-.09-.03-.14-.04-.35-.08-.61-.42-.67-.87,0-.06-.03-.11-.03-.17,0-.08.02-.14.03-.21.02-.12.05-.22.09-.32.15-.32.4-.55.71-.55.46,0,.84.49.84,1.08ZM3.27,6.53s-.01.08-.01.12c0,.55.23,1.03.57,1.35-.63.36-1.13,1.07-1.45,2h-1.32c.09-1.93,1-3.5,2.07-3.5.05,0,.1.02.15.03ZM2.86,10.65c.03-.11.06-.22.09-.33.04-.11.07-.22.11-.33.38-.97,1-1.62,1.68-1.62.05,0,.11.02.16.03.13.02.26.06.38.12.14.07.28.17.41.3.08.08.16.16.23.26-.05.07-.1.15-.14.23-.1.17-.2.36-.28.56-.06.14-.11.3-.16.45-.04.11-.08.21-.11.33-.11.39-.18.8-.23,1.23h-2.33c.02-.44.09-.85.19-1.23ZM12.17,8c.34-.32.57-.8.57-1.35,0-.04,0-.08-.01-.12.05,0,.1-.03.15-.03,1.07,0,1.98,1.57,2.07,3.5h-1.32c-.32-.93-.83-1.64-1.45-2ZM12.88,3.54c.46,0,.84.49.84,1.08s-.38,1.08-.84,1.08-.84-.49-.84-1.08.38-1.08.84-1.08ZM9.63,3.54c.46,0,.84.49.84,1.08s-.38,1.08-.84,1.08-.84-.49-.84-1.08.38-1.08.84-1.08ZM6.38,3.54c.46,0,.84.49.84,1.08s-.38,1.08-.84,1.08-.84-.49-.84-1.08.38-1.08.84-1.08ZM2.28,4.62c0-.6.38-1.08.84-1.08s.84.49.84,1.08-.38,1.08-.84,1.08-.84-.49-.84-1.08Z"/></svg>