<?xml version="1.0" encoding="UTF-8"?><svg id="uuid-8e027806-cb1a-4044-ac1a-14dae066128f" xmlns="http://www.w3.org/2000/svg" viewBox="0 0 16 16"><path d="M10.53,2.53h-.41v-.77c0-.11-.05-.21-.13-.27s-.2-.09-.3-.06l-4.56,1.17h0c-.44.16-.77.57-.77,1.06v9.66c0,.62.5,1.12,1.12,1.12h5.06c.62,0,1.12-.5,1.12-1.12V3.65c0-.62-.5-1.12-1.12-1.12ZM9.42,2.21v.33h-1.27l1.27-.33ZM10.95,13.32c0,.23-.19.42-.42.42h-5.06c-.23,0-.42-.19-.42-.42V3.65c0-.23.19-.42.42-.42h5.06c.23,0,.42.19.42.42v9.66Z"/><path d="M5.69,7.4h2.46c.17,0,.3-.13.3-.3s-.13-.3-.3-.3h-2.46c-.17,0-.3.13-.3.3s.13.3.3.3Z"/><path d="M10.13,6.8h-.36c-.17,0-.3.13-.3.3s.13.3.3.3h.36c.17,0,.3-.13.3-.3s-.13-.3-.3-.3Z"/><path d="M5.69,8.71h.83c.17,0,.3-.13.3-.3s-.13-.3-.3-.3h-.83c-.17,0-.3.13-.3.3s.13.3.3.3Z"/><path d="M10.13,8.11h-.36c-.17,0-.3.13-.3.3s.13.3.3.3h.36c.17,0,.3-.13.3-.3s-.13-.3-.3-.3Z"/><path d="M8.7,9.43h-3c-.17,0-.3.13-.3.3s.13.3.3.3h3c.17,0,.3-.13.3-.3s-.13-.3-.3-.3Z"/><path d="M10.13,9.43h-.36c-.17,0-.3.13-.3.3s.13.3.3.3h.36c.17,0,.3-.13.3-.3s-.13-.3-.3-.3Z"/><path d="M7.43,10.75h-1.74c-.17,0-.3.13-.3.3s.13.3.3.3h1.74c.17,0,.3-.13.3-.3s-.13-.3-.3-.3Z"/><path d="M10.13,10.75h-.36c-.17,0-.3.13-.3.3s.13.3.3.3h.36c.17,0,.3-.13.3-.3s-.13-.3-.3-.3Z"/><path d="M7.07,12.07h-1.38c-.17,0-.3.13-.3.3s.13.3.3.3h1.38c.17,0,.3-.13.3-.3s-.13-.3-.3-.3Z"/><path d="M10.13,12.07h-.36c-.17,0-.3.13-.3.3s.13.3.3.3h.36c.17,0,.3-.13.3-.3s-.13-.3-.3-.3Z"/></svg>