<svg width="16" height="16" viewBox="0 0 16 16" fill="none" xmlns="http://www.w3.org/2000/svg">
<path d="M5.1123 12.2217C5.98195 12.2219 6.6875 12.9272 6.6875 13.7969C6.68713 14.6663 5.98172 15.3718 5.1123 15.3721C4.24268 15.3721 3.53748 14.6664 3.53711 13.7969C3.53711 12.927 4.24246 12.2217 5.1123 12.2217ZM10.0605 0.349609C12.9585 0.601022 15.2521 2.94026 15.4346 5.85156H15.4473V7.55664C15.447 10.0334 13.4387 12.0419 10.9619 12.042H10.5977L11.3467 12.8525C11.5258 12.7622 11.7282 12.7109 11.9424 12.7109C12.674 12.7112 13.2676 13.3045 13.2676 14.0361C13.2675 14.7677 12.6739 15.3611 11.9424 15.3613C11.2107 15.3613 10.6173 14.7678 10.6172 14.0361C10.6172 13.7915 10.6842 13.5629 10.7998 13.3662L9.57715 12.042H6.5625C4.08558 12.042 2.07745 10.0335 2.07715 7.55664V6.42676C2.07715 6.10965 2.33524 5.85156 2.65234 5.85156H3.85938L2.72266 4.62109H1.07227C0.865159 4.62109 0.697266 4.4532 0.697266 4.24609C0.697266 4.03899 0.865159 3.87109 1.07227 3.87109H2.79199C2.91734 3.87123 3.02472 3.92398 3.05762 3.94043C3.08314 3.95322 3.10491 3.96646 3.12012 3.97559C3.12772 3.98015 3.13472 3.98417 3.13965 3.9873C3.14202 3.98878 3.14481 3.99012 3.14648 3.99121L3.14844 3.99316H3.14941V3.99414H3.15039L3.1875 4.01855L3.21777 4.05176L4.87988 5.85156H7.32715C7.41991 4.85179 8.18532 4.05049 9.16699 3.89941V0.916016C9.16701 0.577448 9.44656 0.331076 9.75195 0.331055H9.76562L10.0605 0.349609ZM5.1123 12.9717C4.65667 12.9717 4.28711 13.3412 4.28711 13.7969C4.28748 14.2522 4.6569 14.6221 5.1123 14.6221C5.56751 14.6218 5.93713 14.252 5.9375 13.7969C5.9375 13.3414 5.56774 12.9719 5.1123 12.9717ZM11.9424 13.4609C11.7904 13.4609 11.6527 13.5208 11.5498 13.6172C11.5486 13.6183 11.5481 13.62 11.5469 13.6211C11.5435 13.6242 11.5386 13.626 11.5352 13.6289C11.431 13.733 11.3672 13.8773 11.3672 14.0361C11.3673 14.3536 11.6249 14.6113 11.9424 14.6113C12.2597 14.6111 12.5175 14.3535 12.5176 14.0361C12.5176 13.7187 12.2597 13.4612 11.9424 13.4609ZM2.82715 7.55664C2.82745 9.61927 4.4998 11.292 6.5625 11.292H8.88379L4.55176 6.60156H2.82715V7.55664ZM9.90527 11.292H10.9619C13.0245 11.2919 14.697 9.61919 14.6973 7.55664V6.61133H9.16699V6.60156H5.57324L9.90527 11.292ZM9.16699 4.66113C8.60065 4.79646 8.16646 5.26676 8.08301 5.85156H9.16699V4.66113ZM9.91699 5.85156H14.6816C14.4986 3.30698 12.4678 1.2744 9.91699 1.0918V5.85156Z" fill="#CBC3BC"/>
</svg>
