<?xml version="1.0" encoding="UTF-8"?><svg id="uuid-9dda7f26-c8e4-427e-8dba-7aeb5f20777e" xmlns="http://www.w3.org/2000/svg" viewBox="0 0 16 16"><path d="M12.45,3.46h-.62v-1.12c0-.21-.17-.38-.38-.38s-.38.17-.38.38v1.12h-2.62v-1.12c0-.21-.17-.38-.38-.38s-.38.17-.38.38v1.12h-2.62v-1.12c0-.21-.17-.38-.38-.38s-.38.17-.38.38v1.12h-.8c-.83,0-1.5.67-1.5,1.5v7.57c0,.83.67,1.5,1.5,1.5h8.91c.83,0,1.5-.67,1.5-1.5v-7.57c0-.83-.67-1.5-1.5-1.5ZM13.2,12.53c0,.41-.34.75-.75.75H3.55c-.41,0-.75-.34-.75-.75v-6.12c.08.02.16.05.25.05h9.91c.09,0,.17-.03.25-.05v6.12ZM13.2,5.46c0,.14-.11.25-.25.25H3.05c-.14,0-.25-.11-.25-.25v-.5c0-.41.34-.75.75-.75h.8v.28c0,.21.17.38.38.38s.38-.17.38-.38v-.28h2.62v.28c0,.21.17.38.38.38s.38-.17.38-.38v-.28h2.62v.28c0,.21.17.38.38.38s.38-.17.38-.38v-.28h.62c.41,0,.75.34.75.75v.5Z"/><path d="M8.29,9.05c-.22,0-.39.08-.51.23h-.01v-1.14c0-.28.07-.38.23-.38s.23.1.23.38v.48h.75v-.48c0-.64-.37-1.02-.99-1.02s-1,.38-1,1.02v3.16c0,.64.38,1.03,1,1.03s1-.39,1-1.03v-1.38c0-.54-.27-.87-.72-.87ZM8.23,11.3c0,.28-.06.38-.23.38s-.23-.1-.23-.38v-1.19c0-.29.1-.44.28-.44.13,0,.19.1.19.28v1.35Z"/></svg>