<?xml version="1.0" encoding="UTF-8"?><svg id="uuid-db51b5f1-ba84-4f65-a58b-3bd1b280bcf8" xmlns="http://www.w3.org/2000/svg" viewBox="0 0 16 16"><path d="M13.44,2.97H2.56c-1.05,0-1.9.85-1.9,1.9v6.25c0,1.05.85,1.9,1.9,1.9h10.89c1.05,0,1.9-.85,1.9-1.9v-6.25c0-1.05-.85-1.9-1.9-1.9ZM14.65,4.88v2.64h-3.04c.87-.32,1.79-.8,2.02-1.46.09-.26.13-.66-.24-1.11-.36-.45-.76-.51-1.04-.48-.98.11-1.94,1.58-2.43,2.45v-3.26h3.52c.67,0,1.21.54,1.21,1.21ZM10.53,7.19c.53-.94,1.32-2,1.91-2.07.02,0,.03,0,.05,0,.1,0,.24.04.41.24.19.24.17.39.13.48-.2.55-1.44,1.06-2.5,1.35ZM2.56,3.67h6.62v3.21c-.5-.88-1.44-2.3-2.4-2.41-.27-.04-.68.03-1.04.48-.36.45-.33.85-.24,1.11.24.66,1.16,1.14,2.02,1.46H1.35v-2.64c0-.67.54-1.21,1.21-1.21ZM8.61,7.19c-1.05-.29-2.3-.8-2.5-1.35-.03-.09-.06-.25.13-.48.16-.2.3-.24.41-.24.02,0,.04,0,.05,0,.59.07,1.37,1.14,1.91,2.07ZM1.35,11.12v-2.85h7.48c-.58.65-1.3,1.31-1.65,1.32-.18,0-.32.15-.32.33,0,.18.15.32.33.32h0c.61-.01,1.42-.77,1.99-1.39v3.48H2.56c-.67,0-1.21-.54-1.21-1.21ZM13.44,12.33h-3.52v-3.5c.57.63,1.39,1.39,2,1.41h0c.18,0,.32-.14.33-.32,0-.18-.14-.33-.32-.33-.35,0-1.07-.67-1.65-1.32h4.35v2.85c0,.67-.54,1.21-1.21,1.21Z"/></svg>