<?xml version="1.0" encoding="UTF-8"?><svg id="uuid-7994bc88-d215-4a67-bb7b-e88ce1cfd6b2" xmlns="http://www.w3.org/2000/svg" viewBox="0 0 16 16"><path d="M12.04,4.03H3.96c-1.06,0-1.93.87-1.93,1.93v4.37c0,1.06.87,1.93,1.93,1.93h8.07c1.06,0,1.93-.87,1.93-1.93v-4.37c0-1.06-.87-1.93-1.93-1.93ZM13.22,10.33c0,.65-.53,1.18-1.18,1.18H3.96c-.65,0-1.18-.53-1.18-1.18v-4.37c0-.65.53-1.18,1.18-1.18h8.07c.65,0,1.18.53,1.18,1.18v4.37Z"/><path d="M7.21,12.9h-2.92c-.21,0-.38.17-.38.38s.17.38.38.38h2.92c.21,0,.38-.17.38-.38s-.17-.38-.38-.38Z"/><path d="M11.71,12.9h-2.92c-.21,0-.38.17-.38.38s.17.38.38.38h2.92c.21,0,.38-.17.38-.38s-.17-.38-.38-.38Z"/><path d="M4.18,3.38h2.92c.21,0,.38-.17.38-.38s-.17-.38-.38-.38h-2.92c-.21,0-.38.17-.38.38s.17.38.38.38Z"/><path d="M8.79,3.38h2.92c.21,0,.38-.17.38-.38s-.17-.38-.38-.38h-2.92c-.21,0-.38.17-.38.38s.17.38.38.38Z"/><path d="M14.98,6.31c-.21,0-.38.17-.38.38v2.92c0,.21.17.38.38.38s.38-.17.38-.38v-2.92c0-.21-.17-.38-.38-.38Z"/><path d="M1.02,6.31c-.21,0-.38.17-.38.38v2.92c0,.21.17.38.38.38s.38-.17.38-.38v-2.92c0-.21-.17-.38-.38-.38Z"/></svg>