<?xml version="1.0" encoding="UTF-8"?><svg id="uuid-3a251b24-1dc7-428d-8330-953703e0b20b" xmlns="http://www.w3.org/2000/svg" viewBox="0 0 16 16"><path d="M14.71,6.6l-.06-.25-.25-.03c-1.72-.22-3.1.13-4.09,1.02-.52.47-.87,1.03-1.1,1.58-.25-1.79-1.04-3.26-2.23-4.15-1.22-.91-2.85-1.2-4.7-.85l-.96.16v.33c.24,4.81,1.62,7.81,7.85,7.86h.11c2.18,0,3.76-.59,4.68-1.76,1.31-1.66.79-3.83.77-3.92ZM2.09,4.72l.31-.05c1.67-.32,3.06-.08,4.12.71,1.09.81,1.79,2.21,1.97,3.94l.15,1.48c-3.7-3.56-3.83-3.64-3.87-3.67-.18-.11-.42-.06-.53.12-.11.18-.06.4.11.5.18.14,2.31,2.18,3.94,3.75-4.82-.28-5.97-2.64-6.21-6.78ZM13.36,10.06c-.71.89-1.89,1.37-3.58,1.45l2.59-2.19c.16-.13.18-.37.04-.53-.13-.16-.37-.18-.53-.04l-2.38,2c.09-.74.37-2.01,1.31-2.86.77-.7,1.84-.99,3.21-.86.08.56.17,1.96-.67,3.03Z"/></svg>