<?xml version="1.0" encoding="UTF-8"?><svg id="uuid-11cf9eae-5b2e-4962-b563-077e670ca4ab" xmlns="http://www.w3.org/2000/svg" viewBox="0 0 16 16"><path d="M4.68,5.99c-.59-.88-1.69-1.18-2.44-.68-.76.51-.89,1.64-.3,2.52.4.59,1.02.92,1.62.92.29,0,.58-.08.83-.25.76-.51.89-1.64.3-2.52ZM3.96,7.88c-.42.28-1.04.07-1.4-.47-.36-.54-.32-1.2.1-1.48.12-.08.27-.12.42-.12.35,0,.74.22.99.59.36.54.31,1.2-.1,1.48Z"/><path d="M6.25,6.07c.08,0,.17,0,.26-.02.45-.08.83-.36,1.07-.79.23-.41.3-.9.21-1.39-.19-1.04-1.08-1.76-1.97-1.6-.45.08-.83.36-1.07.79-.23.41-.3.9-.22,1.39.17.94.91,1.62,1.72,1.62ZM5.4,3.43c.13-.23.33-.38.55-.42.04,0,.08-.01.13-.01.45,0,.87.42.97,1h0c.06.32.01.64-.13.89-.13.23-.32.38-.55.42-.5.09-.99-.36-1.1-.99-.06-.32-.01-.64.13-.89Z"/><path d="M13.77,5.31c-.76-.51-1.85-.2-2.44.68-.59.88-.45,2.01.31,2.52.25.17.53.25.83.25.6,0,1.22-.33,1.62-.92.59-.88.45-2.01-.31-2.52ZM13.45,7.41c-.36.54-.99.75-1.4.47-.41-.28-.46-.94-.1-1.48h0c.25-.38.64-.59.99-.59.15,0,.29.04.42.12.42.28.46.94.1,1.48Z"/><path d="M9.49,6.05c.08.02.17.02.26.02.8,0,1.54-.68,1.72-1.62.09-.49.01-.99-.22-1.39-.24-.43-.62-.71-1.07-.79-.88-.16-1.78.55-1.97,1.6-.09.49-.01.99.21,1.39.24.43.62.71,1.07.79ZM8.95,4h0c.11-.58.53-1,.97-1,.04,0,.08,0,.13.01.22.04.42.19.55.42.14.25.19.57.13.89-.12.64-.6,1.08-1.1.99-.22-.04-.42-.19-.55-.42-.14-.25-.19-.57-.13-.89Z"/><path d="M10.62,9.34c-.1-.13-.19-.28-.25-.44l-.09-.22c-.41-1-1.34-1.63-2.42-1.63s-2.01.62-2.42,1.63l-.09.22c-.07.16-.15.3-.25.44l-.15.19c-.66.86-.74,1.97-.2,2.91.48.83,1.32,1.31,2.25,1.31.12,0,.25,0,.37-.03l.24-.03c.17-.02.34-.02.5,0l.24.03c1.08.15,2.08-.35,2.62-1.28.54-.94.47-2.05-.2-2.91l-.15-.19ZM10.31,12.07c-.3.53-.95,1.05-1.87.92l-.24-.03c-.23-.03-.47-.03-.71,0l-.24.03c-.92.12-1.57-.39-1.87-.92-.3-.53-.43-1.35.14-2.08l.15-.19c.14-.19.26-.39.35-.61l.09-.22c.35-.86,1.12-1.16,1.73-1.16s1.38.3,1.73,1.16l.09.22c.09.22.21.42.35.61l.15.19c.57.73.44,1.55.14,2.08Z"/></svg>